PathFileType	4	(X/Y/Z)	Patient4_TMGait_0pt3_02_right_04.trc.trc
DataRate	CameraRate	NumFrames	NumMarkers	Units	OrigDataRate	OrigDataStartFrame	OrigNumFrames
47.781569965870	47.781569965870	4	33	mm	47.781569965870	71	       141
Frame#	Time	Sacral			L.Shoulder			Chest			R.Shoulder			Neck			R.ASIS			L.ASIS			R.Thigh.Superior			R.Thigh.Lateral			R.Thigh.Inferior			R.Patella			L.Thigh.Superior			L.Thigh.Lateral			L.Thigh.Inferior			L.Patella			L.Shank.Superior			L.Shank.Lateral			L.Shank.Inferior			R.Shank.Superior			R.Shank.Lateral			R.Shank.Inferior			R.Heel			R.Midfoot.Superior			R.Midfoot.Lateral			R.Toe			L.Heel			L.Midfoot.Lateral			L.Midfoot.Superior			L.Toe			L.Elbow			L.Wrist			R.Elbow			R.Wrist			
		X1	Y1	Z1	X2	Y2	Z2	X3	Y3	Z3	X4	Y4	Z4	X5	Y5	Z5	X6	Y6	Z6	X7	Y7	Z7	X8	Y8	Z8	X9	Y9	Z9	X10	Y10	Z10	X11	Y11	Z11	X12	Y12	Z12	X13	Y13	Z13	X14	Y14	Z14	X15	Y15	Z15	X16	Y16	Z16	X17	Y17	Z17	X18	Y18	Z18	X19	Y19	Z19	X20	Y20	Z20	X21	Y21	Z21	X22	Y22	Z22	X23	Y23	Z23	X24	Y24	Z24	X25	Y25	Z25	X26	Y26	Z26	X27	Y27	Z27	X28	Y28	Z28	X29	Y29	Z29	X30	Y30	Z30	X31	Y31	Z31	X32	Y32	Z32	X33	Y33	Z33	

71	7.665000000000	698.630719288639	1006.879884617061	593.002181243556	855.735425194763	1414.315849941348	363.782891133990	987.912273356115	1346.696409962300	502.466671252713	949.194968439831	1435.639774545202	683.644964511813	877.114496738892	1483.654597433434	514.893092762130	937.581067041827	924.387406136658	666.700924009451	880.445366024755	953.619365845647	398.192220251561	935.763129940074	713.479944860210	626.020344311913	842.158869801079	612.365180207469	689.281488837405	897.494655978060	554.694340008324	598.691157252289	880.398517181613	465.008926545741	600.848865650237	952.553087525007	763.286081150210	421.120604451863	887.737390750107	640.226176946758	347.110432570493	987.170988757845	574.266629695714	406.056138147264	1009.514903043301	513.469305544252	404.067402316871	996.060526055905	443.554912582692	390.729409129518	937.880055785545	313.056376556520	330.330676250896	1026.739566947458	214.505490922619	385.859208786282	832.365327262056	383.546354700972	607.071919618559	743.627604319680	293.452568530622	667.915157547040	759.620070965100	196.458699831663	598.998216588200	595.419933700540	47.500879673434	565.251890985849	767.728930820191	95.987967882571	604.980303156183	676.319272931481	38.614361886046	641.637382372281	884.557785037255	39.120016586627	639.080255217918	943.452281473416	35.778496451374	409.537767735757	1025.549199110491	40.746275641704	337.667334775869	1094.843431676100	116.712494305664	367.892166175567	1230.297441350818	85.985169432614	355.308695420608	693.573168649269	1094.667400984659	299.896752962804	651.843235214995	838.664800127215	334.276817409411	1129.348603019932	1158.915602120041	803.196072576523	1360.567438574537	1224.269105357945	718.072065472428	
72	7.685928571429	699.885249793127	1005.568978228647	590.003152310820	856.564429434013	1412.227693674383	359.234885302265	989.042935464170	1345.041721896394	497.964621248651	950.345487508832	1434.697360010512	678.698118790268	877.930656018098	1482.082346176098	510.170810445454	938.972424187577	923.047318890422	664.046116175167	881.553061923696	951.649953376408	395.497040606735	935.416187104288	711.821161170157	623.943751573226	840.654138925130	611.573462032056	687.513759181752	895.246262520506	553.115138881777	597.239146326348	876.913823827478	463.642189255015	599.529620049883	952.900969957376	760.414364582979	417.611147727114	885.673747145538	637.441511229286	345.128910306661	985.564086993286	571.829465787342	403.391010294164	1006.904627272393	511.333189100597	402.222734801513	994.596647034747	441.475993145146	389.082520742890	937.372184637912	310.344099890242	329.802498773722	1027.172718302701	212.963444059076	385.623333356788	828.397056179037	382.524388753569	606.033173725934	738.970940453704	293.327729269443	667.343158207217	754.140190905675	196.035524795140	598.642504131184	589.095009263560	47.679796887351	565.276020835505	761.511116091365	96.044911439904	605.023583160810	669.997135164334	38.673786775274	641.658545389322	878.267376827347	39.058003070823	639.090664910488	944.440898652190	35.598973404104	410.117128782707	1026.502792318283	39.914050978877	338.138146187206	1096.344266767656	114.840407064998	368.632196983720	1231.364727993507	82.723658118470	356.101980553426	695.683834553011	1091.902989552124	297.066361672209	654.871315494644	835.685909909259	332.810138501679	1136.783540130788	1163.228078731424	796.963851418464	1363.240661160228	1239.447952965491	708.896783416422	
73	7.706857142857	701.370719220879	1004.305474516740	586.668903240403	857.692818808992	1410.106109846737	354.326256029236	990.384277660635	1343.471245261476	493.238643282040	951.520859042973	1433.835798399393	673.511391105557	878.875755922134	1480.554257377462	505.071867042435	940.634838185741	921.816243877415	661.217275270544	883.066898636144	949.802619846608	392.616017826066	935.601034077867	710.242868211656	621.791128256420	839.672647640423	610.824640144050	685.552307915462	893.684079845983	551.593231712263	595.663145242797	874.171267728637	462.251358626723	598.100800090140	954.131286773696	758.086127871784	414.540301843738	885.240323808852	635.061998010926	343.378040319715	985.438445647293	569.940475511362	401.289389727016	1005.656318216728	509.238582841631	400.784091473101	994.004435427048	439.249556491649	387.740158676571	936.618637784660	308.142841496011	329.419453498413	1026.202353259155	211.093964071413	385.577674025667	824.984288898818	381.532507352993	604.901162018460	734.721449360922	293.422352080470	666.748214868121	748.923500904396	195.767625466252	598.319563605609	582.843842152032	48.250448592088	565.353522253465	755.434502274489	96.190926005030	605.148603678314	663.728813497629	38.927547356220	641.712836524731	872.009020476753	38.934876797079	639.112668550290	942.324627333933	35.778273628628	410.884434398494	1024.192091155325	39.081300862067	338.594591305352	1095.247551270789	112.330301395911	369.358339734647	1229.537354245061	77.867505930933	356.428095313270	699.125220190793	1088.499493698856	293.714121161913	659.517047235664	832.068551926374	330.562555159702	1143.090963318828	1166.960218876286	790.886231321615	1365.084136926728	1252.151167294152	700.337913453762	
74	7.727785714286	703.071548962010	1003.269192052776	583.014375829278	859.085763405589	1408.145631519533	349.142083103541	991.941542241975	1342.127354416982	488.307960420654	952.816492261982	1433.183005420906	668.131568313747	879.969194924058	1479.219053545246	499.684702847046	942.516476533349	920.814930288481	658.160493282228	884.939213922957	948.263292029365	389.505760556568	936.158951828299	708.847791296762	619.547762015545	839.054291348524	610.258845715118	683.427755818260	892.632210319065	550.241273546295	593.995475905870	871.997916819063	460.972596986934	596.623919174795	956.199442765831	756.499658486775	411.930498633778	886.484712521674	633.279022641044	341.769146365900	986.784098466265	568.723343204261	399.708740526983	1005.821445413412	507.381596618885	399.736465119033	994.407150420383	437.095502209303	386.709355661877	936.026955354412	306.530298339823	329.025727848247	1024.312000491954	209.066589088726	385.693792986078	821.996907307826	380.703701845465	603.734988381814	730.774518434086	293.839732958875	666.161492653637	743.936029886210	195.757061216287	598.073439704588	576.684507878942	49.297979060372	565.502598532024	749.528764541193	96.446720529473	605.379051131121	657.527895902178	39.419988452019	641.812055255140	865.784391948986	38.748539160861	639.147361403334	937.884917398267	36.181667301246	411.669826226285	1019.492484764619	38.273036886412	338.978210423740	1092.190918605578	109.455603038297	370.052264299260	1225.585771115917	72.051055138947	356.468150412129	703.683163360232	1084.780825318516	289.844519394961	665.601925195621	828.125819910460	327.473735024219	1148.417335895000	1170.197258445618	785.014500948244	1366.481884675834	1262.498195830464	692.403173847790	
